<?xml version="1.0" encoding="UTF-8"?>
<svg id="Calque_1" xmlns="http://www.w3.org/2000/svg" version="1.1" viewBox="0 0 32 32">
  <!-- Generator: Adobe Illustrator 30.1.0, SVG Export Plug-In . SVG Version: 2.1.1 Build 136)  -->
  <defs>
    <style>
      .st0 {
        fill: #f5f0ec;
      }
    </style>
  </defs>
  <path class="st0" d="M28,18v8c0,.55-.45,1-1,1H5c-.55,0-1-.45-1-1v-8c0-.55.45-1,1-1s1,.45,1,1v7h20v-7c0-.55.45-1,1-1s1,.45,1,1ZM15.29,18.71c.39.39,1.02.39,1.41,0h0s5-5,5-5c.39-.39.39-1.02,0-1.41-.39-.39-1.02-.39-1.42,0l-3.29,3.29V4c0-.55-.45-1-1-1s-1,.45-1,1v11.59l-3.29-3.29c-.39-.39-1.02-.39-1.41,0s-.39,1.02,0,1.41l5,5Z"/>
</svg>