<?xml version="1.0" encoding="UTF-8"?>
<svg id="Calque_1" xmlns="http://www.w3.org/2000/svg" version="1.1" viewBox="0 0 32 32">
  <!-- Generator: Adobe Illustrator 30.1.0, SVG Export Plug-In . SVG Version: 2.1.1 Build 136)  -->
  <defs>
    <style>
      .st0 {
        fill: #f5f0ec;
      }
    </style>
  </defs>
  <path class="st0" d="M16,10c-3.31,0-6,2.69-6,6s2.69,6,6,6,6-2.69,6-6c0-3.31-2.69-6-6-6ZM16,20c-2.21,0-4-1.79-4-4s1.79-4,4-4,4,1.79,4,4-1.79,4-4,4ZM22,3h-12c-3.86,0-7,3.14-7,7v12c0,3.86,3.14,7,7,7h12c3.86,0,7-3.14,7-7v-12c0-3.86-3.14-7-7-7ZM27,22c0,2.76-2.24,5-5,5h-12c-2.76,0-5-2.24-5-5v-12c0-2.76,2.24-5,5-5h12c2.76,0,5,2.24,5,5v12ZM24,9.5c0,.83-.67,1.5-1.5,1.5s-1.5-.67-1.5-1.5.67-1.5,1.5-1.5,1.5.67,1.5,1.5Z"/>
</svg>