<?xml version="1.0" encoding="UTF-8"?>
<svg id="Calque_1" xmlns="http://www.w3.org/2000/svg" version="1.1" viewBox="0 0 52 52">
  <!-- Generator: Adobe Illustrator 30.1.0, SVG Export Plug-In . SVG Version: 2.1.1 Build 136)  -->
  <defs>
    <style>
      .st0 {
        fill: #becd2f;
      }
    </style>
  </defs>
  <path class="st0" d="M26,4.88C14.33,4.88,4.88,14.33,4.88,26s9.46,21.12,21.12,21.12,21.12-9.46,21.12-21.12c-.01-11.66-9.46-21.11-21.12-21.12ZM41.54,34.82h-6.83l-1.88-2.59,2.57-7.47,3.05-.99,5.33,4.09c-.25,2.45-1.01,4.83-2.23,6.97ZM8.23,27.85l5.32-4.09,3.05.99,2.57,7.47-1.88,2.59h-6.83c-1.22-2.14-1.98-4.51-2.24-6.97h.01ZM10.26,17.57l1.12,3.78-3.11,2.37c.28-2.15.95-4.24,1.97-6.15h.02ZM22.14,30.88l-2.33-6.77,6.19-4.25,6.19,4.25-2.33,6.77h-7.72ZM40.64,21.34l1.12-3.78c1.03,1.91,1.7,4,1.97,6.15l-3.09-2.37ZM39.38,14.16l-1.93,6.52-3.06.99-6.76-4.65v-3.16l5.91-4.06c2.23,1.04,4.21,2.53,5.84,4.37h0ZM29.67,8.5l-3.67,2.52-3.67-2.52c2.42-.51,4.92-.51,7.34,0ZM18.47,9.79l5.91,4.06v3.16l-6.76,4.65-3.06-.99-1.93-6.52c1.63-1.84,3.62-3.32,5.84-4.37ZM12.83,38.07h4.14l1.46,4.12c-2.11-1-4.02-2.39-5.59-4.12ZM22.34,43.5l-2.41-6.79,1.87-2.58h8.39l1.87,2.58-2.4,6.79c-2.42.51-4.91.51-7.33,0h.01ZM33.59,42.19l1.46-4.12h4.14c-1.58,1.72-3.49,3.12-5.6,4.12h.01Z"/>
</svg>