<?xml version="1.0" encoding="UTF-8"?>
<svg id="Calque_2" data-name="Calque 2" xmlns="http://www.w3.org/2000/svg" viewBox="0 0 350.01 234.43">
  <defs>
    <style>
      .cls-1 {
        fill: #5d579e;
      }
    </style>
  </defs>
  <g id="Calque_1-2" data-name="Calque 1">
    <g>
      <path class="cls-1" d="M350.01,234.34L0,234.43V0s349.99,0,349.99,0l.02,234.34ZM8.71,2.41l-6.41-.03.1,6.43c3.57-.56,5.84-3.08,6.31-6.4ZM2.3,182.18l.02,40.92c5.05.82,8.06,4.31,9.04,8.94h162.4s.02-85.17.02-85.17c-16.22-.67-28.57-14.02-28.52-29.77.04-15.65,12.43-28.84,28.52-29.58l-.02-85.16H11.35c-.97,4.66-3.97,8.17-9.04,8.95v40.94s51.87.01,51.87.01v42.27c7.53,5.4,11.83,13.54,11.84,22.56s-4.1,17.3-11.81,22.73l-.07,42.34-51.84.02ZM295.78,182.18l-.04-42.37c-7.66-5.38-11.88-13.72-11.85-22.7s4.36-17.21,11.86-22.57v-42.26s51.93-.03,51.93-.03l-.02-40.94c-5.12-.72-8.13-4.27-9.02-8.95h-162.44s-.02,85.16-.02,85.16c16.29.8,28.7,14.19,28.5,30.04s-12.69,28.6-28.51,29.35l.02,85.13h162.4c.89-4.81,4.26-8.1,9.09-9.05l-.03-40.82h-51.88ZM347.65,2.29l-6.53.22c.87,3.46,3.06,5.86,6.52,6.26V2.29ZM2.3,147.75l.03,32.02,49.54-.02V54.56s-49.55.01-49.55.01v32.1s17.4.07,17.4.07v60.85s-17.42.15-17.42.15ZM330.27,147.65v-60.85s17.41-.13,17.41-.13v-32.13s-49.56.02-49.56.02v125.21s49.57-.04,49.57-.04l-.02-32.02-17.4-.08ZM17.29,145.36l.03-56.21-15.02-.02v56.18s14.99.04,14.99.04ZM347.69,145.1v-55.97s-15.14.01-15.14.01l.02,56.18,15.12-.23ZM173.73,114.15l.05-24.21c-14.81.64-26.12,12.89-26.16,27.17-.04,14.43,11.31,26.77,26.17,27.36l-.06-24.45c-.63-.78-1.52-2.15-1.72-2.9s1.72-2.18,1.73-2.97ZM176.26,120.21l.04,24.32c15.25-.92,26.27-13.41,26.02-27.87s-11.75-26.22-26.14-26.67l.07,24.63c.81.81,1.65,2.08,1.71,2.88.05.67-1.7,1.98-1.7,2.71ZM54.21,136.8c12.67-10.06,12.6-29.17-.03-39.23l.03,39.23ZM295.71,136.64l.03-39.04c-12.66,10.08-12.61,29.38-.03,39.04ZM8.73,231.98c-.56-3.25-2.75-5.78-6.34-6.38l-.07,6.46,6.41-.09ZM347.73,232.05l-.18-6.45c-3.6.65-5.63,3-6.46,6.43l6.64.02Z"/>
      <path class="cls-1" d="M313.25,114.57c1.33-.49,3.02.29,3.49,1.41.59,1.4-.05,3.22-1.2,3.72-1.58.7-3.34.1-3.87-1.23-.59-1.46-.1-3.28,1.57-3.9Z"/>
      <path class="cls-1" d="M34.45,114.71c1.45-.7,3.31.03,3.79,1.12.61,1.4.19,3.29-1.14,3.9-1.22.56-2.93.18-3.76-1-.71-1.02-.51-3.24,1.11-4.02Z"/>
    </g>
  </g>
</svg>