<?xml version="1.0" encoding="UTF-8"?>
<svg id="Calque_1" xmlns="http://www.w3.org/2000/svg" version="1.1" viewBox="0 0 52 52">
  <!-- Generator: Adobe Illustrator 30.1.0, SVG Export Plug-In . SVG Version: 2.1.1 Build 136)  -->
  <defs>
    <style>
      .st0 {
        fill: #5d579e;
      }
    </style>
  </defs>
  <path class="st0" d="M48.75,11.38v13c0,.9-.73,1.62-1.62,1.62s-1.62-.73-1.62-1.62v-9.08l-16.73,16.73c-.63.63-1.66.64-2.3,0h0s-6.98-6.98-6.98-6.98l-13.48,13.48c-.63.63-1.66.63-2.3,0-.63-.63-.63-1.66,0-2.3l14.62-14.62c.63-.63,1.66-.64,2.3,0h0s6.98,6.98,6.98,6.98l15.58-15.58h-9.08c-.9,0-1.62-.73-1.62-1.62s.73-1.62,1.62-1.62h13c.9,0,1.62.73,1.62,1.62Z"/>
</svg>